<svg id="Layer_1" data-name="Layer 1" xmlns="http://www.w3.org/2000/svg" viewBox="0 0 949.84 472.68"><defs><style>.cls-1{fill:#34322c;}.cls-2{fill:#ad8e63;}</style></defs><path class="cls-1" d="M409.51,281.05H350.39a20.86,20.86,0,0,1-20.83-20.83V147.84a21.18,21.18,0,0,1,21.16-21.16h27.11a2.61,2.61,0,0,0,1.61-.55l94.3-73.5,79.49,61.73-4,5.21L473.75,61l-90.26,70.35a9.28,9.28,0,0,1-5.66,1.94H350.72a14.57,14.57,0,0,0-14.56,14.56V260.22a14.25,14.25,0,0,0,14.23,14.23h59.12Z"/><path class="cls-1" d="M596.86,281.05H541.8v-6.6h55.06A14.18,14.18,0,0,0,611,260.28V148a15.51,15.51,0,0,0-15.49-15.49H560v-6.6h35.56A22.12,22.12,0,0,1,617.63,148V260.28A20.79,20.79,0,0,1,596.86,281.05Z"/><path class="cls-2" d="M489.29,133.28V281.05h-6.5v-142l-45.38,27.78V281.05h-6.5V165a3.26,3.26,0,0,1,1.55-2.77l51.89-31.76a3.24,3.24,0,0,1,4.94,2.77Z"/><path class="cls-2" d="M523.59,196.34v84.71h-6.5V198.22l-27.8-16-4.87-2.81a3.25,3.25,0,0,1,3.24-5.64l1.63.94L522,193.52A3.25,3.25,0,0,1,523.59,196.34Z"/><polygon class="cls-2" points="380.9 108.32 376.94 103.17 473.75 28.59 554.38 90.64 550.41 95.8 473.75 36.79 380.9 108.32"/><circle class="cls-2" cx="576.04" cy="157.87" r="8"/><path class="cls-1" d="M18,322.33h4.42l.12,38.82H18Z"/><path class="cls-1" d="M74.17,322.33v38.82h-3.9L45,328.29l.47,32.86h-4V322.33h4.13l25.08,32.56-.47-32.56Z"/><path class="cls-1" d="M127.38,361.15l-1-32.81-13.45,31.51h-2.07L97.18,328.29l-.83,32.86H92.52L94,322.33h4.43l13.86,30.74,13.22-30.74h4.3l1.95,38.82Z"/><path class="cls-1" d="M156.32,359.56a13.66,13.66,0,0,1-5.6-5.52,16.93,16.93,0,0,1-2-8.35V322.33h4.37v22.48q0,6.13,3.36,9.73a11.76,11.76,0,0,0,9,3.6,11.16,11.16,0,0,0,8.64-3.42q3.17-3.42,3.16-9.21V322.33h3.83v22.48a18.34,18.34,0,0,1-2,8.79,14.38,14.38,0,0,1-5.78,5.84,17.7,17.7,0,0,1-8.65,2.06A17.47,17.47,0,0,1,156.32,359.56Z"/><path class="cls-1" d="M223.08,357.67v3.48H198.6V322.33h22.77v3.48H203v13.92h16.17v3.48H203v14.46Z"/><path class="cls-1" d="M261.52,344.16a9.28,9.28,0,0,1,2,6,9.85,9.85,0,0,1-1.71,5.73,11.17,11.17,0,0,1-4.89,3.86,18.3,18.3,0,0,1-7.38,1.39h-11V322.33h10.85c3.54,0,6.37.84,8.47,2.53a8.29,8.29,0,0,1,3.16,6.79,9.82,9.82,0,0,1-1.39,5.1,10,10,0,0,1-3.8,3.69A11.74,11.74,0,0,1,261.52,344.16Zm-18.79-18.53v13.69h7A7.29,7.29,0,0,0,255,337.4a6.58,6.58,0,0,0,2-5,6.27,6.27,0,0,0-2.07-5q-2.07-1.83-6.19-1.83Zm14.19,30.15a7.05,7.05,0,0,0,2.39-5.61,6.74,6.74,0,0,0-2.63-5.63q-2.62-2-7.58-2h-6.37v15.34h7.49A9.93,9.93,0,0,0,256.92,355.78Z"/><path class="cls-1" d="M304.5,357.67v3.48h-26V322.33h4.37v35.34Z"/><path class="cls-1" d="M342.44,357.67v3.48H318V322.33h22.78v3.48H322.32v13.92h16.16v3.48H322.32v14.46Z"/><path class="cls-1" d="M374,347.93a9.78,9.78,0,0,0-2.92-2.62q-1.74-1-4.75-2.45a51.39,51.39,0,0,1-5.31-2.78,11,11,0,0,1-3.39-3.27,8.51,8.51,0,0,1-1.39-4.93,8.75,8.75,0,0,1,3.36-7.25,13.52,13.52,0,0,1,8.62-2.66,21.54,21.54,0,0,1,5.43.71,16,16,0,0,1,4.72,2l-2.13,3.36a13.79,13.79,0,0,0-4.07-2.07,15,15,0,0,0-4.66-.76,7.74,7.74,0,0,0-5.43,1.74,5.58,5.58,0,0,0-1.89,4.28,5.13,5.13,0,0,0,1.1,3.27,10,10,0,0,0,2.68,2.36,49.79,49.79,0,0,0,4.43,2.33,58.39,58.39,0,0,1,5.57,3.1,12.41,12.41,0,0,1,3.66,3.63,9.51,9.51,0,0,1,1.5,5.42,8.89,8.89,0,0,1-3.54,7.56,14.82,14.82,0,0,1-9.14,2.65,21,21,0,0,1-6.76-1.06,15,15,0,0,1-5.22-2.89l2.48-3.54a14.37,14.37,0,0,0,4.72,3.13,14.55,14.55,0,0,0,5.55,1.12,8.87,8.87,0,0,0,5.84-1.77,5.92,5.92,0,0,0,2.12-4.78A6.24,6.24,0,0,0,374,347.93Z"/><path class="cls-1" d="M435.77,347.81H419.9l-5,13.34h-4.43l15.64-38.82H430l15.58,38.82h-4.66Zm-1.35-3.48L427.75,327l-6.55,17.34Z"/><path class="cls-1" d="M465.6,359.56A13.68,13.68,0,0,1,460,354a16.93,16.93,0,0,1-2-8.35V322.33h4.36v22.48q0,6.13,3.37,9.73a11.75,11.75,0,0,0,9,3.6,11.2,11.2,0,0,0,8.65-3.42q3.15-3.42,3.15-9.21V322.33h3.84v22.48a18.23,18.23,0,0,1-2,8.79,14.26,14.26,0,0,1-5.78,5.84A17.69,17.69,0,0,1,474,361.5,17.47,17.47,0,0,1,465.6,359.56Z"/><path class="cls-1" d="M507.87,322.33h10.8a26.24,26.24,0,0,1,11.41,2.39,18.85,18.85,0,0,1,7.88,6.66,17,17,0,0,1,2.83,9.59,19.28,19.28,0,0,1-10.59,17.58,24.23,24.23,0,0,1-11.36,2.6h-11ZM519.2,358a19.2,19.2,0,0,0,9-2,14.16,14.16,0,0,0,5.9-5.7,17.32,17.32,0,0,0,2.06-8.58,15.59,15.59,0,0,0-2.27-8.38,15.22,15.22,0,0,0-6.4-5.69,21.06,21.06,0,0,0-9.44-2h-5.78V358Z"/><path class="cls-1" d="M556.54,322.33H561l.12,38.82h-4.55Z"/><path class="cls-1" d="M586.43,358.94a18.65,18.65,0,0,1-7-7A19.61,19.61,0,0,1,576.9,342a19.83,19.83,0,0,1,2.68-10.23,19.24,19.24,0,0,1,7.32-7.17,20.6,20.6,0,0,1,10.24-2.6,20.14,20.14,0,0,1,10.12,2.57,18.5,18.5,0,0,1,7,7,19.89,19.89,0,0,1,2.53,10,19.53,19.53,0,0,1-10.09,17.35,20.72,20.72,0,0,1-10.26,2.59A19.78,19.78,0,0,1,586.43,358.94ZM605,356.28a14.07,14.07,0,0,0,5.31-5.66,17.45,17.45,0,0,0,1.92-8.29,19.29,19.29,0,0,0-2-8.88,14.89,14.89,0,0,0-5.55-6.05,15.38,15.38,0,0,0-8.17-2.18,15,15,0,0,0-7.79,2,14,14,0,0,0-5.31,5.67,17.68,17.68,0,0,0-1.89,8.29,19.23,19.23,0,0,0,2,8.88,14.84,14.84,0,0,0,5.54,6,15.33,15.33,0,0,0,8.18,2.19A14.73,14.73,0,0,0,605,356.28Z"/><path class="cls-1" d="M663,322.33l-15.58,38.82h-4.24l-15.64-38.82h4.6l13.51,34.45,12.81-34.45Z"/><path class="cls-1" d="M678,322.33h4.42l.12,38.82H678Z"/><path class="cls-1" d="M717.5,347.93a9.82,9.82,0,0,0-2.93-2.62q-1.74-1-4.74-2.45a49.39,49.39,0,0,1-5.31-2.78,11.14,11.14,0,0,1-3.4-3.27,8.58,8.58,0,0,1-1.38-4.93,8.75,8.75,0,0,1,3.36-7.25,13.47,13.47,0,0,1,8.61-2.66,21.54,21.54,0,0,1,5.43.71,16,16,0,0,1,4.72,2l-2.12,3.36a13.79,13.79,0,0,0-4.07-2.07,15.09,15.09,0,0,0-4.66-.76,7.74,7.74,0,0,0-5.43,1.74,5.58,5.58,0,0,0-1.89,4.28,5.12,5.12,0,0,0,1.09,3.27,10.07,10.07,0,0,0,2.69,2.36,49.38,49.38,0,0,0,4.42,2.33,60,60,0,0,1,5.58,3.1,12.49,12.49,0,0,1,3.65,3.63,9.44,9.44,0,0,1,1.51,5.42,8.89,8.89,0,0,1-3.54,7.56,14.85,14.85,0,0,1-9.15,2.65,20.94,20.94,0,0,1-6.75-1.06,14.86,14.86,0,0,1-5.22-2.89l2.47-3.54a14.37,14.37,0,0,0,4.72,3.13,14.55,14.55,0,0,0,5.55,1.12,8.84,8.84,0,0,0,5.84-1.77,5.9,5.9,0,0,0,2.13-4.78A6.31,6.31,0,0,0,717.5,347.93Z"/><path class="cls-1" d="M744.43,359.56a13.68,13.68,0,0,1-5.61-5.52,17,17,0,0,1-2-8.35V322.33h4.36v22.48q0,6.13,3.37,9.73a11.75,11.75,0,0,0,9,3.6,11.2,11.2,0,0,0,8.65-3.42q3.15-3.42,3.15-9.21V322.33h3.84v22.48a18.23,18.23,0,0,1-2,8.79,14.26,14.26,0,0,1-5.78,5.84,17.69,17.69,0,0,1-8.64,2.06A17.47,17.47,0,0,1,744.43,359.56Z"/><path class="cls-1" d="M806.88,347.81H791l-5,13.34h-4.42l15.63-38.82h3.9l15.57,38.82H812Zm-1.36-3.48L798.86,327l-6.55,17.34Z"/><path class="cls-1" d="M857.21,357.67v3.48h-26V322.33h4.36v35.34Z"/><path class="cls-1" d="M895.14,357.67v3.48H870.66V322.33h22.77v3.48H875v13.92h16.17v3.48H875v14.46Z"/><path class="cls-1" d="M926.71,347.93a9.78,9.78,0,0,0-2.92-2.62c-1.16-.69-2.75-1.51-4.75-2.45a50.37,50.37,0,0,1-5.31-2.78,11,11,0,0,1-3.39-3.27,8.51,8.51,0,0,1-1.39-4.93,8.75,8.75,0,0,1,3.36-7.25,13.5,13.5,0,0,1,8.62-2.66,21.52,21.52,0,0,1,5.42.71,15.85,15.85,0,0,1,4.72,2L929,328.05a13.79,13.79,0,0,0-4.07-2.07,15,15,0,0,0-4.66-.76,7.74,7.74,0,0,0-5.43,1.74,5.58,5.58,0,0,0-1.89,4.28,5.18,5.18,0,0,0,1.09,3.27,10.23,10.23,0,0,0,2.69,2.36c1.06.65,2.54,1.43,4.42,2.33a60,60,0,0,1,5.58,3.1,12.65,12.65,0,0,1,3.66,3.63,9.51,9.51,0,0,1,1.5,5.42,8.89,8.89,0,0,1-3.54,7.56,14.84,14.84,0,0,1-9.14,2.65,21,21,0,0,1-6.76-1.06,15,15,0,0,1-5.22-2.89l2.48-3.54a14.26,14.26,0,0,0,4.72,3.13,14.54,14.54,0,0,0,5.54,1.12,8.84,8.84,0,0,0,5.84-1.77,5.9,5.9,0,0,0,2.13-4.78A6.31,6.31,0,0,0,926.71,347.93Z"/><rect class="cls-2" x="427.63" y="396.08" width="92.56" height="2.4"/><path class="cls-2" d="M104.46,435.17h6.44v1.42h-6.44V444h-1.92V428.14h8.95v1.42h-7Z"/><path class="cls-2" d="M125.42,441.71a8.9,8.9,0,0,1,0-11.53,7.61,7.61,0,0,1,11.06,0,8.9,8.9,0,0,1,0,11.53,7.77,7.77,0,0,1-11.06,0Zm5.53.7a5,5,0,0,0,4-1.84,7.82,7.82,0,0,0,0-9.24,5.22,5.22,0,0,0-8.07,0,7.82,7.82,0,0,0,0,9.24A5,5,0,0,0,131,442.41Z"/><path class="cls-2" d="M158.22,429.56V444h-1.91V429.56h-5.86v-1.42h13.63v1.42Z"/><path class="cls-2" d="M178,441.71a8.9,8.9,0,0,1,0-11.53,7.61,7.61,0,0,1,11.06,0,8.9,8.9,0,0,1,0,11.53,7.77,7.77,0,0,1-11.06,0Zm5.53.7a5,5,0,0,0,4-1.84,7.86,7.86,0,0,0,0-9.24,5.23,5.23,0,0,0-8.08,0,7.86,7.86,0,0,0,0,9.24A5,5,0,0,0,183.5,442.41Z"/><path class="cls-2" d="M211.32,444.07a7.44,7.44,0,0,1-5.2-1.5c-1.47-1.13-2.27-3-2.41-5.47a9.24,9.24,0,0,1,1.62-6.23,6.84,6.84,0,0,1,5.45-2.63,7.16,7.16,0,0,1,5.54,1.67l-.63,1.5a5.5,5.5,0,0,0-4.24-1.6,4.87,4.87,0,0,0-4.43,2,7.78,7.78,0,0,0-1.25,5.18,5.65,5.65,0,0,0,2,4.37,6,6,0,0,0,4,1.14,6.38,6.38,0,0,0,3.06-1v-4.07h-3.51V436h5.42v6A10.14,10.14,0,0,1,211.32,444.07Z"/><path class="cls-2" d="M233.09,428.14c3.74.06,5.64,1.57,5.72,4.53v.08q-.1,3.72-4.27,4.43a4.14,4.14,0,0,1,1.72,1.53l4.07,5.29h-2.5l-3.57-4.81c-1-1.27-1.83-1.91-2.47-1.92H231V444H229V428.14ZM231,429.63v6.15h2.15c2.46,0,3.72-1,3.8-2.91v-.32c-.08-1.91-1.34-2.88-3.8-2.92Z"/><path class="cls-2" d="M255.37,438.94l-2.1,5.06h-2l6.68-15.86h1.44L266,444h-2l-2.09-5.06Zm6-1.41-2.69-6.87-2.7,6.87Z"/><path class="cls-2" d="M279.65,435.17h6.44v1.42h-6.44V444h-1.91V428.14h8.94v1.42h-7Z"/><path class="cls-2" d="M301.28,428.14V444h-1.91V428.14Z"/><path class="cls-2" d="M317.6,438.94,315.5,444h-2l6.68-15.86h1.44L328.27,444h-2l-2.09-5.06Zm6-1.41-2.69-6.87-2.7,6.87Z"/><path class="cls-2" d="M361.42,435.42l0-.05,4.44-7.23h2.23l-5.75,8.72V444h-1.91v-7.14l-5.74-8.72h2.23l4.44,7.23Z"/><path class="cls-2" d="M401.91,441.48l5.36-13.34h2.15L402.74,444h-1.68l-6.68-15.86h2.15Z"/><path class="cls-2" d="M423.21,428.14V444H421.3V428.14Z"/><path class="cls-2" d="M441,428.14q7.48.09,7.59,8v.08c-.07,5.11-2.6,7.68-7.59,7.74h-4.51V428.14Zm-2.6,1.49v12.88H441q5.56-.06,5.67-6.13v-.31q-.11-6.37-5.67-6.44Z"/><path class="cls-2" d="M463.05,435.17h6.44v1.42h-6.44v6h7V444h-8.94V428.14h8.94v1.42h-7Z"/><path class="cls-2" d="M484,441.71a8.9,8.9,0,0,1,0-11.53,7.63,7.63,0,0,1,11.07,0,8.9,8.9,0,0,1,0,11.53,7.79,7.79,0,0,1-11.07,0Zm5.53.7a5,5,0,0,0,4-1.84,7.82,7.82,0,0,0,0-9.24,5.22,5.22,0,0,0-8.07,0,7.82,7.82,0,0,0,0,9.24A5,5,0,0,0,489.54,442.41Z"/><path class="cls-2" d="M530.65,428.14q7.49.09,7.59,8v.08c-.07,5.11-2.6,7.68-7.59,7.74h-4.52V428.14ZM528,429.63v12.88h2.62q5.57-.06,5.67-6.13v-.31q-.11-6.37-5.67-6.44Z"/><path class="cls-2" d="M552.72,435.17h6.45v1.42h-6.45v6h7V444h-9V428.14h9v1.42h-7Z"/><path class="cls-2" d="M590.63,428.14V444h-1.91V428.14Zm3.31,7.18c1.53,0,2.32-.94,2.39-2.69v-.31c-.07-1.75-1.14-2.65-3.21-2.69h-3v-1.49h3q5,.09,5.13,4.29v.08a3.62,3.62,0,0,1-2.12,3.32q3.2.63,3.29,3.66v.34c-.07,2.72-1.89,4.11-5.48,4.17h-4l.06-1.49h3.79c2.39,0,3.61-.89,3.68-2.57v-.57c-.07-1.67-1.14-2.53-3.21-2.57H590l.06-1.48Z"/><path class="cls-2" d="M613.58,428.14V444h-1.91V428.14Z"/><path class="cls-2" d="M628.74,435.17h6.44v1.42h-6.44v6h7V444h-8.94V428.14h8.94v1.42h-7Z"/><path class="cls-2" d="M650.25,431.65V444h-1.91V428.14h1.56l9.23,12.71V428.14H661V444h-1.68Z"/><path class="cls-2" d="M675.94,435.17h6.45v1.42h-6.45v6h7V444H674V428.14H683v1.42h-7Z"/><path class="cls-2" d="M700.15,435.23q3.4,1.92,3.66,4.09a3.89,3.89,0,0,1-1.08,3.45,5.34,5.34,0,0,1-3.79,1.28,6.13,6.13,0,0,1-4.5-2l.59-1.57a5.26,5.26,0,0,0,3.78,1.93,3.12,3.12,0,0,0,2.72-1,2.17,2.17,0,0,0,.17-2.22c-.36-.83-1.58-1.81-3.65-3s-3.19-2.46-3.33-4A3.59,3.59,0,0,1,695.8,429a5.34,5.34,0,0,1,3.58-1,6.14,6.14,0,0,1,3.74,1.14l-.35,1.46a6.06,6.06,0,0,0-2.58-1,3.84,3.84,0,0,0-2.65.32,1.88,1.88,0,0,0-.94,2Q696.77,433.32,700.15,435.23Z"/><path class="cls-2" d="M736.4,428.14c3.75.06,5.65,1.57,5.72,4.53v.08q-.09,3.72-4.26,4.43a4.2,4.2,0,0,1,1.72,1.53l4.07,5.29h-2.5l-3.57-4.81c-1-1.27-1.84-1.91-2.48-1.92h-.83V444h-1.91V428.14Zm-2.13,1.49v6.15h2.15q3.69-.06,3.79-2.91v-.32q-.11-2.87-3.79-2.92Z"/><path class="cls-2" d="M758.68,438.94l-2.1,5.06h-2l6.68-15.86h1.44L769.36,444h-2l-2.1-5.06Zm6-1.41-2.7-6.87-2.69,6.87Z"/><path class="cls-2" d="M783,428.14V444h-1.91V428.14Z"/><path class="cls-2" d="M803.7,444.07a7.42,7.42,0,0,1-5.19-1.5c-1.47-1.13-2.3-3-2.48-5.53a9.06,9.06,0,0,1,1.63-6.34,6.93,6.93,0,0,1,5.5-2.69,7.11,7.11,0,0,1,5.54,1.67l-.62,1.5a5.53,5.53,0,0,0-4.25-1.61,5,5,0,0,0-4.48,2.08,7.68,7.68,0,0,0-1.25,5.3q.28,3.14,2,4.43a5.93,5.93,0,0,0,4,1.15,10.6,10.6,0,0,0,4.42-1.32l.12,1.24A9.62,9.62,0,0,1,803.7,444.07Z"/><path class="cls-2" d="M823.34,435.17h6.44v1.42h-6.44v6h7V444h-8.94V428.14h8.94v1.42h-7Z"/><path class="cls-2" d="M847.55,435.23c2.27,1.28,3.48,2.64,3.65,4.09a3.89,3.89,0,0,1-1.07,3.45,5.35,5.35,0,0,1-3.8,1.28,6.13,6.13,0,0,1-4.5-2l.6-1.57a5.26,5.26,0,0,0,3.78,1.93,3.1,3.1,0,0,0,2.71-1,2.12,2.12,0,0,0,.17-2.22c-.35-.83-1.57-1.81-3.65-3s-3.18-2.46-3.32-4A3.54,3.54,0,0,1,843.2,429a5.3,5.3,0,0,1,3.57-1,6.15,6.15,0,0,1,3.75,1.14l-.36,1.46a6.06,6.06,0,0,0-2.57-1,3.87,3.87,0,0,0-2.66.32,1.89,1.89,0,0,0-.93,2C844.1,432.84,845.29,434,847.55,435.23Z"/></svg>